<?xml version="1.0" encoding="utf-8"?>
<!-- Generator: Adobe Illustrator 21.0.0, SVG Export Plug-In . SVG Version: 6.00 Build 0)  -->
<svg version="1.1" id="Layer_1" xmlns="http://www.w3.org/2000/svg" xmlns:xlink="http://www.w3.org/1999/xlink" x="0px" y="0px"
	 viewBox="0 0 632 206.2" style="enable-background:new 0 0 632 206.2;" xml:space="preserve">
<style type="text/css">
	.st0{fill:#19647E;}
	.st1{fill:#28AFB0;}
	.st2{fill:url(#SVGID_1_);}
	.st3{fill:url(#SVGID_2_);}
</style>
<g>
	<path class="st0" d="M206.6,159.1c1.1,1.7,1.6,4.1,1.6,7.2c0,5.7-1.4,10.2-4.1,13.5c-7,8.4-14,14.9-21.2,19.5
		c-7.1,4.6-15.6,6.9-25.3,6.9c-9.5,0-17.5-2.5-24.1-7.6c-6.6-5.1-12.9-13.8-18.9-26.2c-4.8-9.9-8.6-17.2-11.3-21.9
		c-2.8-4.7-5.5-8.1-8.2-10.1c-2.7-2-6-3.3-9.9-3.7c-0.6,3.1-2.3,12.7-5,28.8c-1.2,7.3-1.9,11.7-2.2,13.3c-1.5,8.9-4.4,15.7-8.7,20.4
		c-4.4,4.7-11,7.1-19.9,7.1c-9.8,0-18.4-2.9-25.9-8.6c-7.5-5.7-13.3-13.8-17.4-24C2,163.4,0,151.7,0,138.6C0,114.1,4.3,93,12.8,75.3
		C21.3,57.5,33.2,44,48.6,34.6c15.3-9.4,33.1-14.1,53.1-14.1c14,0,25.7,2.1,35.1,6.3c9.5,4.2,16.5,10,21.1,17.5
		c4.6,7.4,6.9,15.8,6.9,25.1c0,8.2-1.9,16.1-5.8,23.9c-3.9,7.8-9.6,14.7-17.3,20.6c-7.7,6-17.1,10.4-28.2,13.3
		c7,1.9,12.4,4.9,16.2,9.2c3.8,4.2,7.6,10.4,11.3,18.6c4.1,8.7,8.1,15.1,12.1,19.2c4,4.1,8.6,6.1,13.9,6.1c4.7,0,9.1-1.6,13.3-4.7
		c4.2-3.1,9.5-8.5,15.9-16c1.7-2,3.7-3.1,5.9-3.1C204,156.5,205.5,157.4,206.6,159.1z M55,136.4c-4.9,0-8.3-1.2-10.1-3.5
		c-1.8-2.3-2.7-4.9-2.7-7.9c0-3.5,1.1-6.3,3.4-8.3c2.3-2,4.8-3.1,7.7-3.1h5.5c2.3-14.3,4.5-26.6,6.5-36.9c1.9-9.5,8-14.2,18.3-14.2
		c8.3,0,12.4,3.7,12.4,11.1c0,1.6-0.1,2.8-0.2,3.7l-6.5,36.2c7.9-0.4,15-2.3,21.5-5.7c6.5-3.3,11.6-8,15.5-14
		c3.9-6,5.8-12.7,5.8-20.3c0-9.2-3.1-16.4-9.4-21.6c-6.3-5.2-15.4-7.9-27.5-7.9c-14.3,0-26.7,3.5-37.4,10.6
		c-10.7,7.1-19,17.5-25,31.4c-6,13.9-8.9,30.8-8.9,50.7c0,9.3,0.9,17.3,2.8,24c1.9,6.7,4.2,11.7,7,15.1c2.8,3.3,5.4,5,7.9,5
		c1.9,0,3.5-0.9,4.7-2.8c1.2-1.9,2.2-4.9,2.9-9.2L55,136.4z"/>
	<path class="st0" d="M191.4,196.4c-5.4-6.5-8.1-15.1-8.1-25.8c0-11.6,2.7-22.7,8.1-33.1c5.4-10.4,12.6-18.8,21.5-25.1
		s18.4-9.5,28.5-9.5c3.2,0,5.3,0.6,6.4,1.9c1.1,1.2,2,3.5,2.7,6.7c3.1-0.6,6.3-0.9,9.6-0.9c7.1,0,10.7,2.5,10.7,7.6
		c0,3.1-1.1,10.3-3.3,21.8c-3.3,16.7-5,28.4-5,34.9c0,2.2,0.5,3.9,1.6,5.2c1.1,1.3,2.5,2,4.3,2c2.8,0,6.1-1.8,10-5.3
		c3.9-3.6,9.2-9.3,15.9-17.4c1.7-2,3.7-3.1,5.9-3.1c1.9,0,3.4,0.9,4.5,2.6s1.6,4.1,1.6,7.2c0,5.8-1.4,10.3-4.1,13.5
		c-6,7.4-12.3,13.7-19,18.8c-6.7,5.1-13.2,7.6-19.4,7.6c-4.8,0-9.2-1.6-13.2-4.9c-4-3.3-7-7.7-9.1-13.4
		c-7.6,12.2-17.1,18.3-28.6,18.3C204,206.2,196.8,203,191.4,196.4z M230,178.5c2.9-3.8,5-8.8,6.3-15.1l8.1-40.2
		c-6.1,0.1-11.8,2.4-16.9,6.9c-5.2,4.4-9.3,10.3-12.3,17.6c-3.1,7.3-4.6,15-4.6,23.1c0,4.5,0.9,7.9,2.7,10c1.8,2.2,4.3,3.3,7.5,3.3
		C224.1,184.2,227.1,182.3,230,178.5z"/>
	<path class="st0" d="M414.3,159.1c1.1,1.7,1.6,4.1,1.6,7.2c0,5.8-1.4,10.3-4.1,13.5c-6.7,7.7-13.6,14-20.6,19
		c-7.1,4.9-15.1,7.4-24.1,7.4c-7.4,0-13-2.1-16.8-6.4c-3.8-4.3-5.7-10.5-5.7-18.7c0-4.1,1-11.3,3.1-21.8c1.9-9.2,2.8-15.5,2.8-19
		c0-2.3-0.8-3.5-2.4-3.5c-1.9,0-4.6,2.4-8.1,7.3c-3.5,4.9-7,11.3-10.5,19.3c-3.5,8-6.3,16.4-8.5,25.3c-2.8,11.6-9.6,17.5-20.5,17.5
		c-4.4,0-7.2-1.6-8.6-4.7c-1.4-3.1-2.1-8.8-2.1-16.9c0-4.7,0.1-8.4,0.2-11.1l0.2-17.5c0-22.4,2.3-45.8,6.9-70.1
		c4.6-24.3,11.3-44.7,20.3-61.2C326.4,8.3,337.1,0,349.6,0c6.7,0,12.1,2.9,16.3,8.6c4.1,5.7,6.2,13.2,6.2,22.4
		c0,14.7-4.3,29.9-12.9,45.7c-8.6,15.8-22.6,34.2-41.9,55.3c-0.4,7.6-0.7,15.4-0.7,23.4c4.8-12.4,10.1-22.4,16-30.2
		c5.9-7.8,11.7-13.3,17.5-16.7c5.7-3.3,11-5,15.8-5c9.5,0,14.2,4.7,14.2,14.2c0,5.7-1.6,15.9-4.8,30.8c-2.8,12.7-4.1,21-4.1,25.1
		c0,5.8,2.1,8.7,6.3,8.7c2.9,0,6.4-1.8,10.4-5.3c4-3.6,9.3-9.3,16-17.4c1.7-2,3.7-3.1,5.9-3.1C411.8,156.5,413.3,157.4,414.3,159.1z
		 M336.3,32.8c-3.2,7.5-6.3,17.6-9.3,30.3c-3,12.7-5.4,26.6-7.3,41.6c9-10.6,16.5-22.2,22.4-34.7c5.9-12.5,8.8-23.9,8.8-34
		c0-4.7-0.5-8.2-1.5-10.7c-1-2.5-2.5-3.7-4.4-3.7C342.4,21.6,339.5,25.4,336.3,32.8z"/>
	<path class="st0" d="M404.5,196.2c-4.3-6.7-6.4-15.6-6.4-26.6c0-6.5,0.8-15,2.5-25.2c1.7-10.3,3.8-19.8,6.4-28.7
		c1.3-4.7,3.1-7.9,5.2-9.6c2.2-1.7,5.7-2.6,10.5-2.6c7.4,0,11.1,2.5,11.1,7.4c0,3.6-1.4,12.1-4.1,25.3c-3.5,16-5.2,26.8-5.2,32.5
		c0,4.4,0.6,7.7,1.7,10c1.2,2.3,3.1,3.5,5.9,3.5c2.6,0,5.9-1.8,9.8-5.5c3.9-3.6,9.2-9.4,15.7-17.2c1.7-2,3.7-3.1,5.9-3.1
		c1.9,0,3.4,0.9,4.5,2.6s1.6,4.1,1.6,7.2c0,5.8-1.4,10.3-4.1,13.5c-14.4,17.6-27.9,26.4-40.4,26.4
		C415.7,206.2,408.8,202.9,404.5,196.2z M413.1,84.8c-3.1-2.8-4.6-6.8-4.6-11.9c0-5.1,2-9.3,6-12.8c4-3.4,9-5.1,14.9-5.1
		c5.4,0,9.7,1.3,13.1,3.9c3.3,2.6,5,6.3,5,11.1c0,5.8-1.9,10.4-5.7,13.9c-3.8,3.4-8.8,5.1-15.1,5.1C420.8,89,416.2,87.6,413.1,84.8z
		"/>
	<path class="st0" d="M455.8,197.5c-2.3-5.8-3.4-15.1-3.4-27.9c0-18.9,2.7-36.9,8.1-53.9c1.3-4.2,3.5-7.3,6.4-9.3
		c3-2,7.2-2.9,12.5-2.9c2.9,0,4.9,0.4,6.1,1.1c1.2,0.7,1.7,2.1,1.7,4.1c0,2.3-1.1,7.6-3.3,15.7c-1.5,5.8-2.6,10.9-3.5,15.2
		c-0.9,4.3-1.6,9.6-2.2,16c3.9-11.3,8.6-21,14.1-28.8c5.5-7.9,11.1-13.7,16.8-17.6c5.7-3.9,11.2-5.8,16.3-5.8
		c5.1,0,8.7,1.2,10.8,3.5c2.1,2.3,3.2,5.9,3.2,10.7c0,4.7-1.4,13.1-4.1,25.3c-1.2,5.2-2,9.2-2.4,11.8c7.3-17.9,15.3-30.9,24.2-39.1
		c8.9-8.1,17.2-12.2,24.9-12.2c9.5,0,14.2,4.7,14.2,14.2c0,5.7-1.6,15.9-4.8,30.8c-2.8,12.7-4.1,21-4.1,25.1c0,5.8,2.1,8.7,6.3,8.7
		c2.9,0,6.4-1.8,10.4-5.3c4-3.6,9.3-9.3,16-17.4c1.7-2,3.7-3.1,5.9-3.1c1.9,0,3.4,0.9,4.5,2.6c1.1,1.7,1.6,4.1,1.6,7.2
		c0,5.8-1.4,10.3-4.1,13.5c-6.3,7.7-13,14-20.2,19c-7.2,4.9-15.4,7.4-24.6,7.4c-7.4,0-13-2.1-16.8-6.4c-3.8-4.3-5.7-10.5-5.7-18.7
		c0-4.1,1-11.3,3.1-21.8c1.9-9.2,2.8-15.5,2.8-19c0-2.3-0.8-3.5-2.4-3.5c-1.9,0-4.6,2.4-8.1,7.3c-3.5,4.9-7,11.3-10.5,19.3
		c-3.5,8-6.3,16.4-8.5,25.3c-1.6,7-3.5,11.6-5.6,14c-2.1,2.3-5.5,3.5-10.1,3.5c-4.8,0-8.4-2.3-10.8-6.9c-2.4-4.6-3.6-10.1-3.6-16.7
		c0-5.5,0.7-13.5,2.2-24c1.2-9.3,1.7-15.4,1.7-18.3c0-2.3-0.8-3.5-2.4-3.5c-2.2,0-4.9,2.6-8.3,7.9c-3.3,5.2-6.6,11.9-9.7,20.1
		c-3.1,8.2-5.6,16.2-7.5,24c-1.6,6.8-3.5,11.5-5.6,13.9c-2.1,2.4-5.4,3.6-9.9,3.6C462,206.2,458.1,203.3,455.8,197.5z"/>
</g>
</svg>
